<svg width="20" height="20" viewBox="0 0 20 20" xmlns="http://www.w3.org/2000/svg"><title>archive</title><g fill="#000" fill-rule="evenodd"><path d="M2 1.99v16.02C2 18 2 18 1.99 18h16.02c-.01 0-.01 0-.01.01V1.99c0 .01 0 .01.01.01H1.99C2 2 2 2 2 1.99zm-2 0C0 .892.898 0 1.99 0h16.02C19.108 0 20 .898 20 1.99v16.02c0 1.099-.898 1.99-1.99 1.99H1.99C.892 20 0 19.102 0 18.01V1.99z"/><path d="M9 9V5.523C9 5.247 9.224 5 9.5 5h1c.276 0 .5.247.5.523V9h2.34c.62 0 .84.441.5.941l-3.22 4.687c-.34.5-.9.482-1.24-.008L6.16 9.939C5.82 9.451 6.04 9 6.66 9H9zM2 14h4v4H2zM14 14h4v4h-4z"/></g></svg>