<svg xmlns="http://www.w3.org/2000/svg" width="200" height="200" viewBox="0 0 200 200"><path fill-rule="evenodd" clip-rule="evenodd" d="M175 116.309c0-41.516-14.062-76.465-50.366-87.573.171-1.221.366-2.466.366-3.736 0-13.806-11.206-25-25-25S75 11.194 75 25c0 1.27.195 2.515.366 3.735C39.062 39.844 25 74.792 25 116.309V150h-6.25a6.247 6.247 0 0 0-6.25 6.25v12.5a6.247 6.247 0 0 0 6.25 6.25H75c0 13.818 11.182 25 25 25 13.794 0 25-11.182 25-25h56.25a6.247 6.247 0 0 0 6.25-6.25v-12.5a6.247 6.247 0 0 0-6.25-6.25H175v-33.691z"/></svg>