<svg xmlns="http://www.w3.org/2000/svg" width="200" height="200" viewBox="0 0 200 200"><path d="M43.75 25h12.5a6.254 6.254 0 0 0 6.25-6.25V6.25A6.238 6.238 0 0 0 56.25 0h-12.5a6.247 6.247 0 0 0-6.25 6.25v12.5c0 3.442 2.808 6.25 6.25 6.25M143.75 25h12.5a6.254 6.254 0 0 0 6.25-6.25V6.25A6.238 6.238 0 0 0 156.25 0h-12.5a6.247 6.247 0 0 0-6.25 6.25v12.5c0 3.442 2.808 6.25 6.25 6.25"/><path d="M187.5 0h-6.25A6.238 6.238 0 0 0 175 6.25v25a6.247 6.247 0 0 1-6.25 6.25h-37.5a6.254 6.254 0 0 1-6.25-6.25v-25A6.23 6.23 0 0 0 118.75 0h-37.5A6.238 6.238 0 0 0 75 6.25v25a6.247 6.247 0 0 1-6.25 6.25h-37.5A6.254 6.254 0 0 1 25 31.25v-25A6.23 6.23 0 0 0 18.75 0H12.5C5.604 0 0 5.591 0 12.5v175c0 6.885 5.604 12.5 12.5 12.5h175c6.909 0 12.5-5.615 12.5-12.5v-175C200 5.591 194.409 0 187.5 0M175 175H25V62.5h150V175z"/><path d="M84.961 148.364a5.555 5.555 0 0 0 7.861 0l55.555-55.933c2.16-2.173 2.16-5.713 0-7.886l-7.861-7.91a5.541 5.541 0 0 0-7.85 0l-43.774 44.043-21.546-19.922a5.54 5.54 0 0 0-7.849 0l-7.874 7.935c-2.16 2.173-2.16 5.713 0 7.91l33.338 31.763z"/></svg>