<svg xmlns="http://www.w3.org/2000/svg" width="200" height="200" viewBox="0 0 200 200"><path d="M75.002 162.498c-3.9 0-7.629-1.831-10.003-5.005l-26.896-35.875-15.198 22.813c-3.839 5.737-11.602 7.275-17.339 3.467-5.737-3.845-7.3-11.597-3.461-17.346l24.999-37.498c2.246-3.369 6-5.432 10.058-5.554 4.089.061 7.904 1.745 10.339 4.992l25.359 33.812 28.454-56.894a12.52 12.52 0 0 1 10.059-6.86c4.358-.439 8.532 1.478 11.12 4.944l25.365 33.812 28.453-56.895c3.088-6.165 10.583-8.667 16.771-5.603 6.177 3.1 8.679 10.607 5.604 16.771l-37.499 74.996c-1.953 3.882-5.736 6.482-10.058 6.873-4.358.365-8.533-1.478-11.133-4.956L114.632 98.68 86.19 155.576c-1.953 3.881-5.737 6.481-10.064 6.872-.379.037-.764.05-1.124.05"/></svg>