<svg xmlns="http://www.w3.org/2000/svg" width="200" height="200" viewBox="0 0 200 200"><path d="M12.5 50.307c-6.873 0-12.5 5.749-12.5 12.78v74.72c0 7.019 5.627 12.5 12.5 12.5H25v41.589c0 7.056 6.641 10.352 11.279 5.493l42.225-47.082H112.5c6.885 0 12.5-5.481 12.5-12.5v-74.72c0-7.031-5.615-12.78-12.5-12.78h-100z"/><path d="M87.5.307C80.627.307 75 6.056 75 13.087v24.72h50c6.922 0 12.5 5.603 12.5 12.5v67.847l26.232 29.235c4.639 4.858 11.268 1.562 11.268-5.493v-41.589h12.5c6.885 0 12.5-5.481 12.5-12.5v-74.72c0-7.031-5.615-12.78-12.5-12.78h-100z"/></svg>