<svg xmlns="http://www.w3.org/2000/svg" width="200" height="200" viewBox="0 0 200 200"><path fill-rule="evenodd" clip-rule="evenodd" d="M198.153 60.65l-74.898 68.653c-.195.195-.5.122-.72.293a6.38 6.38 0 0 1-3.524 1.454c-.104.012-.189.061-.299.061-1.759.086-3.542-.513-4.893-1.869l-36.966-30.71c-2.553-2.54-2.553-6.681 0-9.228a6.527 6.527 0 0 1 9.246 0l32.6 27.076 70.538-64.647c2.461-2.461 6.461-2.461 8.916 0a6.308 6.308 0 0 1 0 8.917m-60.57-35.702H25.016c-6.907 0-12.508 5.611-12.508 12.514v125.077c0 6.9 5.601 12.495 12.508 12.495h112.567c6.913 0 12.507-5.595 12.507-12.495v-25.015h12.508v25.015c0 13.814-11.2 25.015-25.015 25.015H25.016c-13.814 0-25.015-11.2-25.015-25.015V37.462c0-13.814 11.2-25.016 25.015-25.016h112.567c13.814 0 25.015 11.201 25.015 25.016H150.09c0-6.902-5.594-12.514-12.507-12.514"/></svg>