<svg xmlns="http://www.w3.org/2000/svg" width="200" height="200" viewBox="0 0 200 200"><path fill-rule="evenodd" clip-rule="evenodd" d="M187.5 87.5h-13.623c-1.867-11.377-6.25-21.875-12.744-30.884l9.497-9.619c4.883-4.883 4.883-12.866 0-17.749-4.87-4.883-12.744-4.883-17.627 0l-9.619 9.595c-9.009-6.47-18.384-10.84-30.884-12.72V12.5C112.5 5.615 106.885 0 100 0c-6.86 0-12.5 5.615-12.5 12.5v13.623c-12.5 1.88-21.875 6.25-30.859 12.72l-9.631-9.595c-4.871-4.883-12.879-4.883-17.75 0-4.87 4.883-4.87 12.866 0 17.749l9.632 9.619C32.385 65.625 28.003 76.123 26.135 87.5H12.5C5.64 87.5 0 93.481 0 100.366S5.64 112.5 14.014 112.5h12.121c1.868 11.377 6.25 21.875 12.757 30.884l-9.632 9.619c-4.87 4.858-4.87 12.866 0 17.749 4.871 4.858 12.757 4.858 17.615 0l9.766-9.619C65.625 167.627 75 171.997 87.5 173.877V187.5c0 6.86 5.64 12.5 12.5 12.5 6.885 0 12.5-5.64 12.5-12.5v-13.623c12.5-1.88 21.875-6.25 30.884-12.744l9.619 9.619c4.896 4.858 12.757 4.858 17.627 0 4.883-4.883 4.883-12.891 0-17.749l-9.497-9.521c6.372-8.984 10.877-19.482 12.744-30.981H187.5c6.885 0 12.5-5.64 12.5-12.5 0-6.886-5.615-12.501-12.5-12.501m-87.5 50c-20.74 0-37.5-16.895-37.5-37.5 0-20.63 16.76-37.5 37.5-37.5 20.63 0 37.5 16.87 37.5 37.5 0 20.605-16.87 37.5-37.5 37.5"/></svg>