<svg xmlns="http://www.w3.org/2000/svg" width="200" height="200" viewBox="0 0 200 200"><path fill-rule="evenodd" clip-rule="evenodd" d="M174.998 100.001l25 31.25-25 31.249H131.25v25c0 6.897-5.592 12.5-12.5 12.5h-37.5c-6.898 0-12.5-5.603-12.5-12.5v-25H37.5v-62.499h31.25V87.498H25L.002 56.249 25 24.999h43.75V12.494C68.75 5.591 74.352 0 81.25 0h37.5c6.908 0 12.5 5.591 12.5 12.494v12.505h31.248v62.499H131.25v12.503h43.748zM81.25 181.25a6.258 6.258 0 0 0 6.25 6.25h25a6.255 6.255 0 0 0 6.25-6.25V162.5h-37.5v18.75zm37.5-162.501a6.248 6.248 0 0 0-6.25-6.255h-25a6.25 6.25 0 0 0-6.25 6.255v6.25h37.5v-6.25zm31.248 56.25V37.487H31.25L12.5 56.249l18.75 18.75h118.748zM81.25 100.001h37.5V87.498h-37.5v12.503zM50 112.489V150h118.748l18.75-18.749-18.75-18.762H50z"/></svg>