<svg width="16" height="16" viewBox="0 0 16 16" xmlns="http://www.w3.org/2000/svg"><title>Icon_documents</title><g fill="#494949" fill-rule="evenodd"><path d="M3 12v-2h-.999C2.003 10 2 2.009 2 2.009 2 2.005 9.991 2 9.991 2 9.996 2 10 3 10 3h2v-.999C12 .901 11.1 0 9.991 0H2.01A2.01 2.01 0 0 0 0 2.009V9.99C0 11.098.896 12 2.001 12H3z"/><path d="M4 6.009A2.01 2.01 0 0 1 6.009 4h7.982A2.01 2.01 0 0 1 16 6.009v7.982A2.01 2.01 0 0 1 13.991 16H6.01A2.01 2.01 0 0 1 4 13.991V6.01zM13.991 6c.004 0 .009 7.991.009 7.991 0 .004-7.991.009-7.991.009C6.005 14 6 6.009 6 6.009 6 6.005 13.991 6 13.991 6z"/><path d="M7.375 12.5h5.25c.207 0 .375-.224.375-.5v-1c0-.276-.168-.5-.375-.5h-5.25c-.207 0-.375.224-.375.5v1c0 .276.168.5.375.5zM7.375 9.5h5.25c.207 0 .375-.224.375-.5V8c0-.276-.168-.5-.375-.5h-5.25C7.168 7.5 7 7.724 7 8v1c0 .276.168.5.375.5z"/></g></svg>