<svg xmlns="http://www.w3.org/2000/svg" width="200" height="200" viewBox="0 0 200 200"><path d="M100 0C44.775 0 0 44.775 0 100s44.775 100 100 100 100-44.775 100-100S155.225 0 100 0M25 100c0-20.605 8.362-39.307 21.875-52.881.024 24.805 3.161 34.18 15.625 46.631 12.5 12.5 31.25 34.375 31.25 59.375 0 10.986 3.015 18.75 6.384 21.875H100c-41.37 0-75-33.643-75-75m101.843 70.02c9.889-11.353 21.582-29.419 13.782-45.02-12.5-25-56.25-6.25-56.25-31.25S125 100 125 50c0-17.969-14.368-23.73-29.321-24.854A63.734 63.734 0 0 1 100 25c41.345 0 75 33.643 75 75 0 31.885-20.032 59.18-48.157 70.02"/></svg>