<svg xmlns="http://www.w3.org/2000/svg" width="200" height="200" viewBox="0 0 200 200"><path d="M25.002 0H12.503C5.594 0 .003 5.603.003 12.5v175c0 6.909 5.591 12.5 12.5 12.5h174.994c6.897 0 12.5-5.591 12.5-12.5v-175c0-6.897-5.603-12.5-12.5-12.5H25.002zM100 74.998c13.794 0 24.999 11.224 24.999 24.999 0 13.787-11.205 25.005-24.999 25.005s-24.999-11.218-24.999-25.005c0-13.775 11.205-24.999 24.999-24.999m74.998 100.003H25.002V99.997h24.999c0 27.593 22.425 50.005 49.999 50.005 27.562 0 49.999-22.412 49.999-50.005h24.999v75.004zm0-112.503h-37.499V24.999h37.499v37.499z"/></svg>