<svg xmlns="http://www.w3.org/2000/svg" width="200" height="200" viewBox="0 0 200 200"><g fill-rule="evenodd" clip-rule="evenodd"><path d="M6.25 56.244h37.5V193.75H6.25zM143.75 56.25c-23.205 0-32.239 12.5-37.928 25l.428-25H69.141c.586 12.5-.391 137.5-.391 137.5h37.5v-73.059c0-3.87.244-7.801 1.306-10.577 3.126-7.801 12.586-15.912 24.524-15.912 15.589 0 24.17 12.048 24.17 29.553v69.995h37.5v-75.024c0-40.051-21.777-62.476-50-62.476M43.75 25c0 10.364-8.398 18.75-18.75 18.75-10.339 0-18.75-8.386-18.75-18.75S14.661 6.25 25 6.25c10.352 0 18.75 8.386 18.75 18.75"/></g></svg>