<svg xmlns="http://www.w3.org/2000/svg" width="200" height="200" viewBox="0 0 200 200"><path d="M12.5.518C5.615.518 0 6.865 0 13.896v137.219c0 7.02 5.615 11.902 12.5 11.902H25v29.699c0 7.044 5.041 8.24 11.268 5.188l67.224-34.888H187.5c6.873 0 12.5-4.883 12.5-11.902V13.896C200 6.865 194.373.517 187.5.517h-175zM150 56.768c0 3.442-2.808 6.25-6.25 6.25h-87.5a6.254 6.254 0 0 1-6.25-6.25v-12.5a6.254 6.254 0 0 1 6.25-6.25h87.5c3.442 0 6.25 2.808 6.25 6.25v12.5zm0 62.5c0 3.442-2.808 6.25-6.25 6.25h-87.5a6.254 6.254 0 0 1-6.25-6.25v-12.5a6.254 6.254 0 0 1 6.25-6.25h87.5c3.442 0 6.25 2.808 6.25 6.25v12.5z"/></svg>