<svg xmlns="http://www.w3.org/2000/svg" width="200" height="200" viewBox="0 0 200 200"><g fill-rule="evenodd" clip-rule="evenodd"><path d="M187.5 0h-175C5.591 0 0 5.591 0 12.5V150c0 6.885 5.591 12.5 12.5 12.5h75V175h-25c-6.909 0-12.5 5.591-12.5 12.5 0 6.885 5.591 12.5 12.5 12.5h75c6.896 0 12.5-5.615 12.5-12.5 0-6.909-5.604-12.5-12.5-12.5h-25v-12.5h75c6.896 0 12.5-5.615 12.5-12.5V12.5C200 5.591 194.396 0 187.5 0M175 137.5H25V25h150v112.5z"/><path d="M56.25 75h87.5c3.442 0 6.25-2.808 6.25-6.25v-12.5a6.247 6.247 0 0 0-6.25-6.25h-87.5A6.238 6.238 0 0 0 50 56.25v12.5A6.254 6.254 0 0 0 56.25 75M56.25 112.5h87.5c3.442 0 6.25-2.808 6.25-6.25v-12.5a6.247 6.247 0 0 0-6.25-6.25h-87.5A6.238 6.238 0 0 0 50 93.75v12.5a6.254 6.254 0 0 0 6.25 6.25"/></g></svg>