<svg xmlns="http://www.w3.org/2000/svg" width="200" height="200" viewBox="0 0 200 200"><path d="M100 .102c-55.225 0-100 44.775-100 100 0 53.875 42.627 97.673 95.978 99.787-.329.049 5.713-.111 6.562-.293 14.038-1.148 28.076-5.055 41.138-12.5 6.006-3.492 8.13-11.109 4.639-17.115-3.369-6.006-11.011-8.129-17.017-4.627-10.938 6.117-22.559 9.145-34.326 9.607C56.988 173.338 25 140.5 25 100.102c0-41.424 33.588-75 75-75 41.431 0 75 33.576 75 75v12.505c0 6.896-5.615 12.5-12.5 12.5s-12.5-5.604-12.5-12.5v-12.505c0-27.612-22.388-50-50-50s-50 22.388-50 50c0 27.619 22.388 50.005 50 50.005 13.135 0 25-5.176 33.936-13.477 6.885 8.18 17.041 13.477 28.564 13.477 20.703 0 37.5-17.188 37.5-39.453v-10.552c0-55.225-44.775-100-100-100m0 125.005c-13.8 0-25-11.219-25-25.005 0-13.776 11.2-25 25-25 13.794 0 25 11.224 25 25 0 13.787-11.206 25.005-25 25.005"/></svg>