<svg xmlns="http://www.w3.org/2000/svg" width="200" height="200" viewBox="0 0 200 200"><path fill-rule="evenodd" clip-rule="evenodd" d="M162.5 87.502c-13.471 0-25.177-7.172-31.793-17.835L74.464 94.648c.249 1.765.536 3.523.536 5.35 0 2.747-.329 5.396-.897 7.972l55.384 24.597c6.286-11.877 18.634-20.068 33.014-20.068 20.709 0 37.5 16.785 37.5 37.5 0 20.703-16.791 37.5-37.5 37.5s-37.5-16.797-37.5-37.5c0-1.831.287-3.589.538-5.347l-56.245-24.987c-6.604 10.669-18.322 17.834-31.793 17.834-20.709 0-37.5-16.797-37.5-37.5 0-20.711 16.791-37.503 37.5-37.503 14.386 0 26.715 8.192 33.014 20.069l55.384-24.604c-.562-2.57-.897-5.225-.897-7.966 0-20.703 16.791-37.493 37.5-37.493S200 29.292 200 49.995c0 20.716-16.791 37.507-37.5 37.507m0 87.496c13.806 0 25-11.193 25-25 0-13.806-11.194-25-25-25s-25 11.194-25 25c0 13.807 11.194 25 25 25M37.5 74.995c-13.806 0-25 11.2-25 25.003 0 13.807 11.194 25 25 25s25-11.193 25-25c0-13.803-11.194-25.003-25-25.003m125-50c-13.806 0-25 11.194-25 25 0 13.812 11.194 25 25 25s25-11.188 25-25c0-13.806-11.194-25-25-25"/></svg>