<svg xmlns="http://www.w3.org/2000/svg" width="200" height="200" viewBox="0 0 200 200"><path d="M194.738 78.947h-15.791V63.158a5.267 5.267 0 0 0-5.262-5.264h-10.527a5.268 5.268 0 0 0-5.264 5.264v15.789h-15.789a5.268 5.268 0 0 0-5.264 5.264v10.525a5.261 5.261 0 0 0 5.264 5.264h15.789v15.789a5.262 5.262 0 0 0 5.264 5.264h10.527a5.26 5.26 0 0 0 5.262-5.264V100h15.791A5.26 5.26 0 0 0 200 94.736V84.211a5.267 5.267 0 0 0-5.262-5.264M94.737 112.253v-7.565c12.531-7.299 21.052-20.724 21.052-36.267V57.895c0-23.252-18.853-42.105-42.105-42.105-23.253 0-42.105 18.854-42.105 42.105v10.526c0 15.543 8.526 28.968 21.052 36.267v7.565C16.329 118.112 0 138.651 0 163.158v10.526c0 5.828 4.718 10.526 10.526 10.526h126.315c5.809 0 10.527-4.698 10.527-10.526v-10.526c.001-24.507-16.323-45.046-52.631-50.905"/></svg>