<svg xmlns="http://www.w3.org/2000/svg" width="200" height="200" viewBox="0 0 200 200"><g fill-rule="evenodd" clip-rule="evenodd"><path d="M112.5 125.002L66.907 79.429a6.224 6.224 0 0 0-8.837 0L41.908 95.578c-2.441 2.453-4.406 7.227-4.406 10.668v50.005a6.254 6.254 0 0 0 6.25 6.25h112.496c3.442 0 6.25-2.808 6.25-6.25v-24.999c0-3.442-1.978-8.228-4.431-10.669l-16.162-16.155a6.227 6.227 0 0 0-8.838 0L112.5 125.002zM131.249 87.497c10.339 0 18.749-8.398 18.749-18.75 0-10.351-8.41-18.749-18.749-18.749-10.352 0-18.749 8.398-18.749 18.749 0 10.352 8.397 18.75 18.749 18.75"/><path d="M187.497 0H12.503C5.594 0 .003 5.591.003 12.499V187.5c0 6.909 5.591 12.5 12.5 12.5h174.994c6.896 0 12.5-5.591 12.5-12.5V12.499c0-6.908-5.603-12.499-12.5-12.499m-12.499 175H25.002V24.999h149.996V175z"/></g></svg>