<svg xmlns="http://www.w3.org/2000/svg" width="200" height="200" viewBox="0 0 200 200"><path d="M100 0C44.775 0 0 44.775 0 100s44.775 100 100 100 100-44.775 100-100S155.225 0 100 0m12.5 156.25a6.254 6.254 0 0 1-6.25 6.25h-12.5a6.246 6.246 0 0 1-6.25-6.25v-12.5a6.246 6.246 0 0 1 6.25-6.25h12.5a6.254 6.254 0 0 1 6.25 6.25v12.5zm0-45.898v8.398a6.254 6.254 0 0 1-6.25 6.25h-12.5a6.246 6.246 0 0 1-6.25-6.25V100c0-6.909 1.562-12.5 9.375-12.5h9.375a6.255 6.255 0 0 0 6.25-6.25v-12.5a6.255 6.255 0 0 0-6.25-6.25h-12.5a6.247 6.247 0 0 0-6.25 6.25c0 1.733-1.184 6.25-6.25 6.25h-12.5c-4.688 0-6.299-2.808-5.737-6.226C65.979 51.05 81.445 37.5 100 37.5c20.666 0 37.5 16.821 37.5 37.5 0 16.296-10.449 30.2-25 35.352"/></svg>