<svg xmlns="http://www.w3.org/2000/svg" width="200" height="200" viewBox="0 0 200 200"><path fill-rule="evenodd" clip-rule="evenodd" d="M196.328 178.658l-38.889-38.646c-.025-.023-.049-.023-.074-.049 11.023-14.648 17.627-32.774 17.627-52.463 0-48.24-39.256-87.496-87.497-87.496C39.268.005 0 39.261 0 87.501s39.268 87.495 87.495 87.495c19.701 0 37.816-6.615 52.464-17.626.025.024.025.049.049.073l38.645 38.89a12.463 12.463 0 0 0 8.838 3.662 12.42 12.42 0 0 0 8.838-3.662 12.472 12.472 0 0 0-.001-17.675m-108.833-28.66c-34.446 0-62.497-28.039-62.497-62.497 0-34.459 28.051-62.497 62.497-62.497 34.471 0 62.497 28.038 62.497 62.497 0 34.458-28.026 62.497-62.497 62.497"/></svg>