<svg xmlns="http://www.w3.org/2000/svg" width="200" height="200" viewBox="0 0 200 200"><path d="M196.352 161.316l-61.317-61.317 61.317-61.314c4.864-4.864 4.864-12.68 0-17.521l-17.52-17.52c-4.815-4.839-12.68-4.839-17.519 0L99.996 64.962 38.705 3.645c-4.864-4.839-12.705-4.839-17.521 0l-17.52 17.52c-4.888 4.841-4.888 12.656 0 17.521L64.958 100 3.665 161.316a12.298 12.298 0 0 0 0 17.519l17.52 17.52c4.815 4.841 12.656 4.841 17.521 0l61.291-61.317 61.317 61.317c4.839 4.841 12.703 4.841 17.519 0l17.52-17.52a12.341 12.341 0 0 0-.001-17.519"/></svg>