<svg xmlns="http://www.w3.org/2000/svg" width="200" height="200" viewBox="0 0 200 200"><path d="M200 37.945c-7.363 3.278-15.276 5.464-23.579 6.478 8.486-5.086 14.994-13.114 18.071-22.718a81.95 81.95 0 0 1-26.082 9.964 40.982 40.982 0 0 0-29.953-12.968c-22.675 0-41.053 18.396-41.053 41.053 0 3.224.354 6.35 1.062 9.353-34.116-1.715-64.375-18.041-84.62-42.878a41.09 41.09 0 0 0-5.531 20.637c0 14.237 9.476 26.778 20.501 34.159-6.74-.214-16.374-2.075-16.374-5.152v.537c0 19.879 11.918 36.461 30.686 40.246-3.443.929-8.182 1.441-11.93 1.441-2.638 0-5.764-.269-8.279-.758 5.227 16.313 20.111 28.183 38.062 28.524-14.043 10.99-31.895 17.56-51.114 17.56-3.321 0-6.655-.195-9.866-.562 18.169 11.624 39.709 18.438 62.885 18.438 75.512 0 116.771-62.543 116.771-116.783 0-1.789-.049-3.56-.134-5.324 8.022-5.788 14.969-13.017 20.477-21.247"/></svg>