<svg width="202" height="201" viewBox="0 0 202 201" xmlns="http://www.w3.org/2000/svg"><title>unarchive</title><g fill="#000" fill-rule="evenodd"><path d="M1 20C1 8.954 9.954 0 21 0h160.59c11.046 0 20 8.954 20 20v160.54a20 20 0 0 1-20 20H20.96c-11.046 0-20-8.954-20-20V20H1zm20.05 0v160.54c0-.09 0-.09-.09-.09h160.59c-.09 0-.09 0-.09.09V20c0 .09 0 .09.09.09H20.96c.08-.04.09-.09.09-.09z"/><path d="M111.27 110.23v34.86a5.22 5.22 0 0 1-5 5.24h-10a5.22 5.22 0 0 1-5-5.24v-34.86H67.81c-6.22 0-8.42-4.42-5-9.43l32.28-47c3.41-5 9-4.83 12.43.08l32.28 46.93c3.41 4.89 1.2 9.41-5 9.41h-23.46l-.07.01zM21.05 140.35h30a10.06 10.06 0 0 1 10.12 10.12v30h-40.1v-40.1l-.02-.02zM141.35 150.47a10.06 10.06 0 0 1 10.12-10.12h30v40.1h-40.1v-30l-.02.02z"/></g></svg>