<svg xmlns="http://www.w3.org/2000/svg" width="200" height="200" viewBox="0 0 200 200"><path fill-rule="evenodd" clip-rule="evenodd" d="M99.852.25c-55.225 0-100 44.775-100 100s44.775 100 100 100 100-44.775 100-100-44.776-100-100-100m12.5 156.25a6.246 6.246 0 0 1-6.25 6.25h-12.5a6.254 6.254 0 0 1-6.25-6.25V144a6.254 6.254 0 0 1 6.25-6.25h12.5a6.246 6.246 0 0 1 6.25 6.25v12.5zm0-37.5a6.246 6.246 0 0 1-6.25 6.25h-12.5a6.254 6.254 0 0 1-6.25-6.25V44a6.254 6.254 0 0 1 6.25-6.25h12.5a6.246 6.246 0 0 1 6.25 6.25v75z"/></svg>