<?xml version="1.0" encoding="UTF-8"?>
<svg width="16px" height="16px" viewBox="0 0 16 16" version="1.1" xmlns="http://www.w3.org/2000/svg" xmlns:xlink="http://www.w3.org/1999/xlink">
    <!-- Generator: Sketch 47.1 (45422) - http://www.bohemiancoding.com/sketch -->
    <title>Home icon</title>
    <desc>Created with Sketch.</desc>
    <defs></defs>
    <g id="Personal-dashboard" stroke="none" stroke-width="1" fill="none" fill-rule="evenodd" fill-opacity="0.8">
        <g id="#000-1.1-Mobile---Personal-dashboard---Tijdlijn" transform="translate(-99.000000, -22.000000)" fill="#FFFFFF">
            <g id="Mainnav">
                <g id="Group-52" transform="translate(87.000000, 10.000000)">
                    <g id="Select">
                        <g id="Home-icon" transform="translate(12.000000, 12.000000)">
                            <path d="M14.0097766,15.4972898 C14.0097766,15.774929 13.7855539,16 13.5089612,16 L2.49102206,16 C2.21442934,16 1.99020664,15.774929 1.99020664,15.4972898 L1.99020664,7.95121663 L0.500815416,7.95121663 C0.224222699,7.95121663 -7.11701511e-15,7.72614561 0,7.44850644 C3.55850756e-15,7.29675286 0.0682932436,7.15312022 0.185829123,7.05767527 L7.37001905,0.223758037 C7.73741547,-0.0745860123 8.2625678,-0.0745860123 8.62996422,0.223758037 L15.8141541,7.05767527 C16.0291907,7.23229556 16.0624881,7.54883435 15.8885259,7.76468445 C15.7934407,7.88266501 15.6503495,7.95121663 15.4991678,7.95121663 L14.0097766,7.95121663 L14.0097766,15.4972898 Z M8.50270182,10.9728981 C8.22506265,10.9728981 7.99999163,11.1979691 7.99999163,11.4756083 L7.99999163,11.4756083 L7.99999163,16 L11.0048841,16 L11.0048841,11.4756083 C11.0048841,11.1979691 10.7798131,10.9728981 10.5021739,10.9728981 L8.50270182,10.9728981 Z" id="Combined-Shape"></path>
                        </g>
                    </g>
                </g>
            </g>
        </g>
    </g>
</svg>